<svg width="15" height="18" viewBox="0 0 15 18" fill="none" xmlns="http://www.w3.org/2000/svg">
<path d="M5.00033 9.83333H10.0003M7.50033 7.33333V12.3333M11.667 16.5H3.33366C2.89163 16.5 2.46771 16.3244 2.15515 16.0118C1.84259 15.6993 1.66699 15.2754 1.66699 14.8333V3.16667C1.66699 2.72464 1.84259 2.30072 2.15515 1.98816C2.46771 1.67559 2.89163 1.5 3.33366 1.5H7.98866C8.20965 1.50005 8.42158 1.58788 8.57783 1.74417L13.0895 6.25583C13.2458 6.41208 13.3336 6.624 13.3337 6.845V14.8333C13.3337 15.2754 13.1581 15.6993 12.8455 16.0118C12.5329 16.3244 12.109 16.5 11.667 16.5Z" stroke="#CDBDFF" stroke-width="1.66667" stroke-linecap="round" stroke-linejoin="round"/>
</svg>
