<svg width="21" height="20" viewBox="0 0 21 20" fill="none" xmlns="http://www.w3.org/2000/svg">
<path d="M16.3337 8.75004V7.33337H12.6671V12.6667H14.0837V11H15.7504V9.58337H14.0837V8.75004H16.3337ZM10.2504 7.33337H11.6671V12.6667H10.2504V7.33337ZM7.25041 8.66671C7.58374 8.66671 8.00041 8.83337 8.25041 9.08337L9.25041 8.25004C8.75041 7.66671 8.00041 7.33337 7.25041 7.33337C5.75041 7.33337 4.58374 8.50004 4.58374 10C4.58374 11.5 5.75041 12.6667 7.25041 12.6667C8.08374 12.6667 8.75041 12.3334 9.25041 11.75V9.66671H6.91707V10.6667H7.91707V11.1667C7.75041 11.25 7.50041 11.3334 7.25041 11.3334C6.50041 11.3334 5.91707 10.75 5.91707 10C5.91707 9.33337 6.50041 8.66671 7.25041 8.66671Z" fill="#CDBDFF"/>
<path d="M17.5837 1.68335H3.41699C2.38366 1.68335 1.54199 2.52252 1.54199 3.55585V16.4783C1.54199 17.51 2.38366 18.35 3.41699 18.35H17.5837C18.617 18.35 19.4587 17.51 19.4587 16.4783V3.55585C19.4587 2.52252 18.617 1.68335 17.5837 1.68335V1.68335ZM18.2087 16.4783C18.2087 16.82 17.9287 17.1 17.5837 17.1H3.41699C3.07199 17.1 2.79199 16.82 2.79199 16.4783V3.55585C2.79199 3.21252 3.07199 2.93335 3.41699 2.93335H17.5837C17.9287 2.93335 18.2087 3.21252 18.2087 3.55585V16.4783Z" fill="#CDBDFF"/>
</svg>
