<svg width="15" height="16" viewBox="0 0 15 16" fill="none" xmlns="http://www.w3.org/2000/svg">
<path d="M0.833496 11.3333L4.65516 7.51165C4.96771 7.19919 5.39156 7.02367 5.8335 7.02367C6.27544 7.02367 6.69928 7.19919 7.01183 7.51165L10.8335 11.3333M9.16683 9.66665L10.4885 8.34498C10.801 8.03253 11.2249 7.857 11.6668 7.857C12.1088 7.857 12.5326 8.03253 12.8452 8.34498L14.1668 9.66665M9.16683 4.66665H9.17516M2.50016 14.6666H12.5002C12.9422 14.6666 13.3661 14.4911 13.6787 14.1785C13.9912 13.8659 14.1668 13.442 14.1668 13V2.99998C14.1668 2.55795 13.9912 2.13403 13.6787 1.82147C13.3661 1.50891 12.9422 1.33331 12.5002 1.33331H2.50016C2.05814 1.33331 1.63421 1.50891 1.32165 1.82147C1.00909 2.13403 0.833496 2.55795 0.833496 2.99998V13C0.833496 13.442 1.00909 13.8659 1.32165 14.1785C1.63421 14.4911 2.05814 14.6666 2.50016 14.6666Z" stroke="#CDBDFF" stroke-width="1.66667" stroke-linecap="round" stroke-linejoin="round"/>
</svg>
