<svg width="21" height="20" viewBox="0 0 21 20" fill="none" xmlns="http://www.w3.org/2000/svg">
<path d="M11.0659 16.25C13.6984 16.25 15.3309 14.8912 15.3309 12.7212C15.3309 11.0887 14.1009 9.86748 12.4259 9.73873V9.66998C13.0674 9.5734 13.6532 9.25075 14.0777 8.76024C14.5022 8.26973 14.7374 7.64366 14.7409 6.99498C14.7409 5.10748 13.2884 3.91998 10.9734 3.91998H5.60718V16.25H11.0659ZM8.18843 5.84248H10.3084C11.5122 5.84248 12.2047 6.40623 12.2047 7.39748C12.2047 8.43998 11.4184 9.04748 10.0422 9.04748H8.18843V5.84123V5.84248ZM8.18843 14.3275V10.7475H10.3509C11.8722 10.7475 12.7009 11.3625 12.7009 12.5162C12.7009 13.695 11.8972 14.3275 10.4109 14.3275H8.18718H8.18843Z" fill="#CDBDFF"/>
</svg>
