<svg width="20" height="20" viewBox="0 0 20 20" fill="none" xmlns="http://www.w3.org/2000/svg">
<g clip-path="url(#clip0_3_9338)">
<path d="M16.1901 12.8566C15.9574 12.624 15.6611 12.4654 15.3384 12.4008L13.3493 12.0033C12.259 11.7853 11.1271 11.9369 10.1326 12.4341L9.86762 12.5658C8.87312 13.0631 7.74125 13.2147 6.65095 12.9966L5.04178 12.675C4.77278 12.6212 4.49468 12.6347 4.23214 12.7142C3.96961 12.7938 3.73076 12.9368 3.53678 13.1308M6.66678 3.33331H13.3334L12.5001 4.16665V8.47665C12.5002 8.91864 12.6759 9.34249 12.9884 9.65498L17.1551 13.8216C18.2051 14.8716 17.4609 16.6666 15.9759 16.6666H4.02345C2.53845 16.6666 1.79512 14.8716 2.84512 13.8216L7.01178 9.65498C7.32436 9.34249 7.50002 8.91864 7.50012 8.47665V4.16665L6.66678 3.33331Z" stroke="#FFEC16" stroke-width="1.66667" stroke-linecap="round" stroke-linejoin="round"/>
</g>
<defs>
<clipPath id="clip0_3_9338">
<rect width="20" height="20" fill="white"/>
</clipPath>
</defs>
</svg>
