<svg width="21" height="20" viewBox="0 0 21 20" fill="none" xmlns="http://www.w3.org/2000/svg">
<g clip-path="url(#clip0_39_1976)">
<path fill-rule="evenodd" clip-rule="evenodd" d="M6.40211 5.18248C6.46032 5.24054 6.5065 5.30951 6.538 5.38544C6.56951 5.46137 6.58573 5.54277 6.58573 5.62498C6.58573 5.70719 6.56951 5.78859 6.538 5.86452C6.5065 5.94045 6.46032 6.00942 6.40211 6.06748L2.46836 9.99998L6.40211 13.9325C6.51947 14.0498 6.5854 14.209 6.5854 14.375C6.5854 14.5409 6.51947 14.7001 6.40211 14.8175C6.28475 14.9348 6.12558 15.0008 5.95961 15.0008C5.79364 15.0008 5.63447 14.9348 5.51711 14.8175L1.14211 10.4425C1.08391 10.3844 1.03773 10.3155 1.00622 10.2395C0.974715 10.1636 0.958496 10.0822 0.958496 9.99998C0.958496 9.91777 0.974715 9.83637 1.00622 9.76044C1.03773 9.68451 1.08391 9.61554 1.14211 9.55748L5.51711 5.18248C5.57517 5.12428 5.64414 5.0781 5.72007 5.04659C5.796 5.01508 5.8774 4.99886 5.95961 4.99886C6.04182 4.99886 6.12322 5.01508 6.19916 5.04659C6.27509 5.0781 6.34406 5.12428 6.40211 5.18248ZM14.2671 5.18248C14.2089 5.24054 14.1627 5.30951 14.1312 5.38544C14.0997 5.46137 14.0835 5.54277 14.0835 5.62498C14.0835 5.70719 14.0997 5.78859 14.1312 5.86452C14.1627 5.94045 14.2089 6.00942 14.2671 6.06748L18.2009 9.99998L14.2671 13.9325C14.209 13.9906 14.1629 14.0596 14.1315 14.1355C14.1 14.2114 14.0838 14.2928 14.0838 14.375C14.0838 14.4572 14.1 14.5385 14.1315 14.6145C14.1629 14.6904 14.209 14.7594 14.2671 14.8175C14.3252 14.8756 14.3942 14.9217 14.4701 14.9531C14.5461 14.9846 14.6274 15.0008 14.7096 15.0008C14.7918 15.0008 14.8732 14.9846 14.9491 14.9531C15.025 14.9217 15.094 14.8756 15.1521 14.8175L19.5271 10.4425C19.5853 10.3844 19.6315 10.3155 19.663 10.2395C19.6945 10.1636 19.7107 10.0822 19.7107 9.99998C19.7107 9.91777 19.6945 9.83637 19.663 9.76044C19.6315 9.68451 19.5853 9.61554 19.5271 9.55748L15.1521 5.18248C15.0941 5.12428 15.0251 5.0781 14.9492 5.04659C14.8732 5.01508 14.7918 4.99886 14.7096 4.99886C14.6274 4.99886 14.546 5.01508 14.4701 5.04659C14.3941 5.0781 14.3252 5.12428 14.2671 5.18248ZM13.0184 1.27748C13.1766 1.32645 13.309 1.43624 13.3863 1.58273C13.4637 1.72922 13.4797 1.90043 13.4309 2.05873L8.43086 18.3087C8.37732 18.4611 8.26687 18.5869 8.12266 18.6596C7.97845 18.7323 7.81168 18.7464 7.65731 18.6989C7.50294 18.6514 7.37297 18.5459 7.29463 18.4047C7.2163 18.2634 7.19568 18.0973 7.23711 17.9412L12.2371 1.69123C12.2861 1.53298 12.3959 1.40064 12.5424 1.32329C12.6889 1.24594 12.8601 1.22991 13.0184 1.27873V1.27748Z" fill="#CDBDFF"/>
</g>
<defs>
<clipPath id="clip0_39_1976">
<rect width="20" height="20" fill="white" transform="translate(0.334717)"/>
</clipPath>
</defs>
</svg>
