<svg width="24" height="25" viewBox="0 0 24 25" fill="none" xmlns="http://www.w3.org/2000/svg">
<path fill-rule="evenodd" clip-rule="evenodd" d="M3 6.09969C3 4.41531 4.34315 3.04985 6 3.04985H11C11.5523 3.04985 12 3.505 12 4.06646C12 4.62792 11.5523 5.08308 11 5.08308H6C5.44772 5.08308 5 5.53823 5 6.09969V18.299C5 18.8605 5.44772 19.3157 6 19.3157H18C18.5523 19.3157 19 18.8605 19 18.299V12.1994C19 11.6379 19.4477 11.1828 20 11.1828C20.5523 11.1828 21 11.6379 21 12.1994V18.299C21 19.9834 19.6569 21.3489 18 21.3489H6C4.34315 21.3489 3 19.9834 3 18.299V6.09969Z" fill="#CDBDFF"/>
<path d="M17.3143 3.47095C18.0954 2.67692 19.3617 2.67692 20.1427 3.47095C20.9238 4.26497 20.9238 5.55234 20.1427 6.34636L13.0717 13.5349C12.6811 13.9319 12.048 13.9319 11.6574 13.5349L10.2432 12.0972C9.85271 11.7002 9.85271 11.0565 10.2432 10.6595L17.3143 3.47095Z" fill="#CDBDFF"/>
<path d="M8.55711 13.1868C8.33395 12.96 7.95253 12.9557 7.86323 13.2634L7.20995 15.5146C7.00429 16.2233 7.59784 16.8267 8.29495 16.6177L10.5094 15.9535C10.8121 15.8628 10.8079 15.475 10.5847 15.2481L8.55711 13.1868Z" fill="#CDBDFF"/>
</svg>
