<svg width="16" height="16" viewBox="0 0 16 16" fill="none" xmlns="http://www.w3.org/2000/svg">
<path d="M11.3333 10.6667L14 8.00002M14 8.00002L11.3333 5.33335M14 8.00002H4.66667M8.66667 10.6667V11.3334C8.66667 11.8638 8.45595 12.3725 8.08088 12.7476C7.70581 13.1226 7.1971 13.3334 6.66667 13.3334H4C3.46957 13.3334 2.96086 13.1226 2.58579 12.7476C2.21071 12.3725 2 11.8638 2 11.3334V4.66669C2 4.13625 2.21071 3.62755 2.58579 3.25247C2.96086 2.8774 3.46957 2.66669 4 2.66669H6.66667C7.1971 2.66669 7.70581 2.8774 8.08088 3.25247C8.45595 3.62755 8.66667 4.13625 8.66667 4.66669V5.33335" stroke="#CDBDFF" stroke-width="1.33333" stroke-linecap="round" stroke-linejoin="round"/>
</svg>
