<svg width="24" height="21" viewBox="0 0 24 21" fill="none" xmlns="http://www.w3.org/2000/svg">
<path fill-rule="evenodd" clip-rule="evenodd" d="M12 3.49311C9.23858 3.49311 7 5.448 7 7.85949C7 10.2941 8.61169 13.8566 12 17.0772C15.3883 13.8566 17 10.2941 17 7.85949C17 5.448 14.7614 3.49311 12 3.49311ZM5 7.85949C5 4.48341 8.13401 1.74655 12 1.74655C15.866 1.74655 19 4.48341 19 7.85949C19 11.0489 16.8356 15.351 12.7071 18.9563C12.3166 19.2974 11.6834 19.2974 11.2929 18.9563C7.16444 15.351 5 11.0489 5 7.85949Z" fill="#E748E6"/>
<path fill-rule="evenodd" clip-rule="evenodd" d="M12 8.73277C12.5523 8.73277 13 8.34179 13 7.85949C13 7.37719 12.5523 6.98621 12 6.98621C11.4477 6.98621 11 7.37719 11 7.85949C11 8.34179 11.4477 8.73277 12 8.73277ZM12 10.4793C13.6569 10.4793 15 9.30638 15 7.85949C15 6.4126 13.6569 5.23966 12 5.23966C10.3431 5.23966 9 6.4126 9 7.85949C9 9.30638 10.3431 10.4793 12 10.4793Z" fill="#E748E6"/>
</svg>
