<svg width="19" height="16" viewBox="0 0 19 16" fill="none" xmlns="http://www.w3.org/2000/svg">
<path d="M13.667 14.6666H17.8337V13C17.8336 12.4804 17.6717 11.9738 17.3704 11.5505C17.0692 11.1272 16.6435 10.8083 16.1526 10.6381C15.6617 10.4679 15.13 10.4549 14.6314 10.6008C14.1327 10.7468 13.692 11.0445 13.3703 11.4525M13.667 14.6666H5.33366M13.667 14.6666V13C13.667 12.4533 13.562 11.9308 13.3703 11.4525M5.33366 14.6666H1.16699V13C1.16703 12.4804 1.32894 11.9738 1.63021 11.5505C1.93148 11.1272 2.35715 10.8083 2.84803 10.6381C3.33892 10.4679 3.87064 10.4549 4.36927 10.6008C4.86791 10.7468 5.30868 11.0445 5.63033 11.4525M5.33366 14.6666V13C5.33366 12.4533 5.43866 11.9308 5.63033 11.4525M5.63033 11.4525C5.93979 10.6791 6.47386 10.0162 7.16366 9.54925C7.85346 9.0823 8.66734 8.83273 9.50033 8.83273C10.3333 8.83273 11.1472 9.0823 11.837 9.54925C12.5268 10.0162 13.0609 10.6791 13.3703 11.4525M12.0003 3.83331C12.0003 4.49635 11.7369 5.13224 11.2681 5.60108C10.7993 6.06992 10.1634 6.33331 9.50033 6.33331C8.83728 6.33331 8.2014 6.06992 7.73256 5.60108C7.26372 5.13224 7.00033 4.49635 7.00033 3.83331C7.00033 3.17027 7.26372 2.53439 7.73256 2.06555C8.2014 1.59671 8.83728 1.33331 9.50033 1.33331C10.1634 1.33331 10.7993 1.59671 11.2681 2.06555C11.7369 2.53439 12.0003 3.17027 12.0003 3.83331V3.83331ZM17.0003 6.33331C17.0003 6.77534 16.8247 7.19926 16.5122 7.51182C16.1996 7.82438 15.7757 7.99998 15.3337 7.99998C14.8916 7.99998 14.4677 7.82438 14.1551 7.51182C13.8426 7.19926 13.667 6.77534 13.667 6.33331C13.667 5.89129 13.8426 5.46736 14.1551 5.1548C14.4677 4.84224 14.8916 4.66665 15.3337 4.66665C15.7757 4.66665 16.1996 4.84224 16.5122 5.1548C16.8247 5.46736 17.0003 5.89129 17.0003 6.33331ZM5.33366 6.33331C5.33366 6.77534 5.15806 7.19926 4.8455 7.51182C4.53294 7.82438 4.10902 7.99998 3.66699 7.99998C3.22496 7.99998 2.80104 7.82438 2.48848 7.51182C2.17592 7.19926 2.00033 6.77534 2.00033 6.33331C2.00033 5.89129 2.17592 5.46736 2.48848 5.1548C2.80104 4.84224 3.22496 4.66665 3.66699 4.66665C4.10902 4.66665 4.53294 4.84224 4.8455 5.1548C5.15806 5.46736 5.33366 5.89129 5.33366 6.33331Z" stroke="#CDBDFF" stroke-width="1.66667" stroke-linecap="round" stroke-linejoin="round"/>
</svg>
