<svg width="14" height="14" viewBox="0 0 14 14" fill="none" xmlns="http://www.w3.org/2000/svg">
<path d="M4.12826 6.99988H4.13492M6.79492 6.99988H6.80159M9.46159 6.99988H9.46826M12.7949 6.99988C12.7949 7.78781 12.6397 8.56803 12.3382 9.29598C12.0367 10.0239 11.5947 10.6854 11.0376 11.2425C10.4804 11.7997 9.81898 12.2416 9.09102 12.5432C8.36307 12.8447 7.58285 12.9999 6.79492 12.9999C6.00699 12.9999 5.22677 12.8447 4.49882 12.5432C3.77087 12.2416 3.10943 11.7997 2.55228 11.2425C1.99513 10.6854 1.55317 10.0239 1.25164 9.29598C0.950116 8.56803 0.794922 7.78781 0.794922 6.99988C0.794922 5.40858 1.42706 3.88246 2.55228 2.75724C3.6775 1.63202 5.20362 0.999878 6.79492 0.999878C8.38622 0.999878 9.91234 1.63202 11.0376 2.75724C12.1628 3.88246 12.7949 5.40858 12.7949 6.99988Z" stroke="#CDBDFF" stroke-width="1.33333" stroke-linecap="round" stroke-linejoin="round"/>
</svg>
