<svg width="24" height="22" viewBox="0 0 24 22" fill="none" xmlns="http://www.w3.org/2000/svg">
<path fill-rule="evenodd" clip-rule="evenodd" d="M12.1707 4.88053H4C3.44772 4.88053 3 5.27151 3 5.7538C3 6.2361 3.44771 6.62708 4 6.62708H12.1707C12.5825 7.64462 13.6938 8.37364 15 8.37364C16.3062 8.37364 17.4175 7.64462 17.8293 6.62708H20C20.5523 6.62708 21 6.2361 21 5.7538C21 5.27151 20.5523 4.88053 20 4.88053H17.8293C17.4175 3.86299 16.3062 3.13397 15 3.13397C13.6938 3.13397 12.5825 3.86299 12.1707 4.88053ZM14 5.7538C14 5.27151 14.4477 4.88053 15 4.88053C15.5523 4.88053 16 5.27151 16 5.7538C16 6.2361 15.5523 6.62708 15 6.62708C14.4477 6.62708 14 6.2361 14 5.7538Z" fill="#CDBDFF"/>
<path fill-rule="evenodd" clip-rule="evenodd" d="M8 8.37364C9.30622 8.37364 10.4175 9.10265 10.8293 10.1202H20C20.5523 10.1202 21 10.5112 21 10.9935C21 11.4758 20.5523 11.8667 20 11.8667H10.8293C10.4175 12.8843 9.30622 13.6133 8 13.6133C6.69378 13.6133 5.58254 12.8843 5.17071 11.8667H4C3.44772 11.8667 3 11.4758 3 10.9935C3 10.5112 3.44772 10.1202 4 10.1202H5.17071C5.58254 9.10265 6.69378 8.37364 8 8.37364ZM8 10.1202C8.55228 10.1202 9 10.5112 9 10.9935C9 11.4758 8.55228 11.8667 8 11.8667C7.44772 11.8667 7 11.4758 7 10.9935C7 10.5112 7.44772 10.1202 8 10.1202Z" fill="#CDBDFF"/>
<path fill-rule="evenodd" clip-rule="evenodd" d="M4 15.3599C3.44772 15.3599 3 15.7508 3 16.2331C3 16.7154 3.44772 17.1064 4 17.1064H14.1707C14.5825 18.1239 15.6938 18.853 17 18.853C18.3062 18.853 19.4175 18.1239 19.8293 17.1064H20C20.5523 17.1064 21 16.7154 21 16.2331C21 15.7508 20.5523 15.3599 20 15.3599H19.8293C19.4175 14.3423 18.3062 13.6133 17 13.6133C15.6938 13.6133 14.5825 14.3423 14.1707 15.3599H4ZM18 16.2331C18 15.7508 17.5523 15.3599 17 15.3599C16.4477 15.3599 16 15.7508 16 16.2331C16 16.7154 16.4477 17.1064 17 17.1064C17.5523 17.1064 18 16.7154 18 16.2331Z" fill="#CDBDFF"/>
</svg>
