<svg width="24" height="25" viewBox="0 0 24 25" fill="none" xmlns="http://www.w3.org/2000/svg">
<path fill-rule="evenodd" clip-rule="evenodd" d="M12.001 7.82584L11.4334 9.58286C11.0318 10.8262 9.87994 11.6681 8.58026 11.6681H6.74366L8.2295 12.754C9.28097 13.5224 9.72094 14.8845 9.31932 16.1279L8.75178 17.8849L10.2376 16.799C11.2891 16.0305 12.7129 16.0305 13.7643 16.799L15.2502 17.8849L14.6826 16.1279C14.281 14.8845 14.721 13.5224 15.7724 12.754L17.2583 11.6681H15.4217C14.122 11.6681 12.9701 10.8262 12.5685 9.58287L12.001 7.82584ZM12.952 4.25982C12.6527 3.33307 11.3493 3.33307 11.0499 4.25982L9.53132 8.96118C9.39745 9.37564 9.01349 9.65624 8.58026 9.65624H3.66598C2.69726 9.65624 2.29448 10.9032 3.07819 11.4759L7.05393 14.3815C7.40442 14.6377 7.55108 15.0917 7.4172 15.5062L5.89861 20.2075C5.59925 21.1343 6.65374 21.9049 7.43745 21.3322L11.4132 18.4266C11.7637 18.1704 12.2383 18.1704 12.5888 18.4266L16.5645 21.3322C17.3482 21.9049 18.4027 21.1343 18.1033 20.2075L16.5847 15.5062C16.4509 15.0917 16.5975 14.6377 16.948 14.3815L20.9238 11.4759C21.7075 10.9032 21.3047 9.65624 20.336 9.65624H15.4217C14.9885 9.65624 14.6045 9.37564 14.4706 8.96118L12.952 4.25982Z" fill="#CDBDFF"/>
</svg>
