<svg width="32" height="20" viewBox="0 0 32 20" fill="none" xmlns="http://www.w3.org/2000/svg">
<path d="M13.9742 14.5697L19.8281 10.4764C20.1683 10.2498 20.1683 9.75042 19.8281 9.52383L13.9742 5.43057C13.5934 5.17696 13.0833 5.44966 13.0833 5.90687V14.0934C13.0833 14.5506 13.5934 14.8233 13.9742 14.5697Z" fill="#E748E6"/>
<path d="M10.9363 3.64874C11.1297 4.16449 10.8696 4.73922 10.3552 4.93464C10.3552 4.93464 7 6.20838 7 9.99959C7 13.7908 10.3552 15.0651 10.3552 15.0651C10.8696 15.2605 11.1297 15.8352 10.9363 16.351C10.7424 16.8681 10.166 17.1301 9.64885 16.9362C9.67591 16.9459 9.28443 16.7916 8.88471 16.5668C8.45663 16.326 7.88732 15.9525 7.31603 15.4169C6.16178 14.3348 4.99997 12.5852 4.99997 9.99986C4.99997 7.41457 6.16178 5.66493 7.31603 4.58283C7.99872 3.9428 8.78778 3.4278 9.64885 3.06353C10.166 2.86961 10.7424 3.13162 10.9363 3.64874Z" fill="#E748E6"/>
<path fill-rule="evenodd" clip-rule="evenodd" d="M7 1.11381e-05C7.37891 1.11215e-05 8 0.284317 8 1.00001C8 1.71571 7.35366 1.93497 7.35366 1.93497C7.35366 1.93497 6.81111 2.18288 6.55276 2.3282C6.04334 2.61475 5.36265 3.06158 4.68394 3.69788C3.33819 4.95952 2 6.95988 2 9.99959C2 13.0393 3.33819 15.0397 4.68394 16.3013C5.36266 16.9376 6.04334 17.3844 6.55276 17.671C6.99676 17.9207 7.30437 18.0449 7.34867 18.0623C7.7367 18.2164 8 18.5762 8 18.9997C8 19.5962 7.5 19.9987 7 19.9987C6.48077 19.9987 6.01653 19.6641 5.57224 19.4141C4.95666 19.0679 4.13734 18.5303 3.31606 17.7604C1.66181 16.2095 -2.74891e-07 13.7099 -4.37073e-07 9.99959C-5.99255e-07 6.2893 1.66181 3.78967 3.31606 2.23881C4.13734 1.46885 4.95666 0.931312 5.57224 0.585048C5.98613 0.352232 6.50962 1.11595e-05 7 1.11381e-05Z" fill="#E748E6"/>
<path d="M21.0637 16.35C20.8703 15.8343 21.1304 15.2596 21.6448 15.0641C21.6448 15.0641 25 13.7904 25 9.99919C25 6.20797 21.6448 4.93369 21.6448 4.93369C21.1304 4.73825 20.8703 4.16353 21.0637 3.64779C21.2576 3.13067 21.834 2.86867 22.3512 3.06259C22.3241 3.05287 22.7156 3.20719 23.1153 3.43203C23.5434 3.67282 24.1127 4.0463 24.684 4.58188C25.8382 5.66399 27 7.41363 27 9.99892C27 12.5842 25.8382 14.3338 24.684 15.416C24.0013 16.056 23.2122 16.571 22.3511 16.9352C21.834 17.1292 21.2576 16.8672 21.0637 16.35Z" fill="#E748E6"/>
<path fill-rule="evenodd" clip-rule="evenodd" d="M25 19.9988C24.6211 19.9988 24 19.7145 24 18.9988C24 18.2831 24.6463 18.0638 24.6463 18.0638C24.6463 18.0638 25.1889 17.8159 25.4472 17.6706C25.9567 17.384 26.6373 16.9372 27.3161 16.3009C28.6618 15.0393 30 13.0389 30 9.99919C30 6.95948 28.6618 4.95912 27.3161 3.69748C26.6373 3.06118 25.9567 2.61434 25.4472 2.3278C25.0032 2.07804 24.6956 1.95392 24.6513 1.93651C24.2633 1.78242 24 1.42262 24 0.999063C24 0.402565 24.5 0.000121742 25 0.000121764C25.5192 0.000121787 25.9835 0.334729 26.4278 0.584643C27.0433 0.930909 27.8627 1.46845 28.6839 2.2384C30.3382 3.78926 32 6.2889 32 9.99919C32 13.7095 30.3382 16.2091 28.6839 17.76C27.8627 18.5299 27.0433 19.0675 26.4278 19.4137C26.0139 19.6465 25.4904 19.9988 25 19.9988Z" fill="#E748E6"/>
</svg>
